<svg xmlns="http://www.w3.org/2000/svg" width="29" height="29" viewBox="0 0 29 29">
  <g id="Group_44821" data-name="Group 44821" transform="translate(0.25)">
    <circle id="Ellipse_1280" data-name="Ellipse 1280" cx="14.5" cy="14.5" r="14.5" transform="translate(-0.25)" fill="#406ca7"/>
    <g id="Group_44822" data-name="Group 44822" transform="translate(4.379 3.629)">
      <rect id="Rectangle_8046" data-name="Rectangle 8046" width="20" height="20" transform="translate(0.371 0.371)" fill="#fff" opacity="0"/>
      <g id="Call" transform="translate(1.698 1.698)">
        <path id="Stroke_1" data-name="Stroke 1" d="M3.083-.75c.937,0,1.6.7,2.44,1.582.212.223.431.454.678.7A2.449,2.449,0,0,1,6.79,4.519c-.3.864-.562,1.61,1,3.171A3.345,3.345,0,0,0,9.951,8.919a3.058,3.058,0,0,0,1.009-.232,3.566,3.566,0,0,1,1.2-.266,2.5,2.5,0,0,1,1.783.852c.244.244.472.461.692.67.881.838,1.577,1.5,1.588,2.427.01.79-.47,1.6-1.656,2.783q-.019.019-.039.036l-.042.042a3.089,3.089,0,0,1-2.352.994c-2.064,0-4.754-1.644-8-4.886S-.762,5.386-.75,3.318A3.086,3.086,0,0,1,.243.99L.285.948Q.3.928.321.909C1.5-.269,2.3-.75,3.083-.75ZM9.951,10.162A4.391,4.391,0,0,1,6.911,8.568C4.8,6.456,5.272,5.1,5.617,4.11c.242-.693.364-1.041-.294-1.7-.258-.258-.493-.505-.7-.724-.66-.694-1.136-1.2-1.54-1.2s-1,.418-1.867,1.279c-.032.036-.067.07-.105.108A1.87,1.87,0,0,0,.492,3.326C.485,4.51,1.265,6.71,5.018,10.462s5.935,4.522,7.119,4.522a1.873,1.873,0,0,0,1.463-.62c.038-.039.072-.073.108-.106.863-.866,1.281-1.478,1.276-1.872s-.507-.882-1.2-1.543c-.215-.2-.46-.437-.714-.692a1.257,1.257,0,0,0-.9-.488,2.585,2.585,0,0,0-.792.2A4.136,4.136,0,0,1,9.951,10.162Z" transform="translate(0.75 0.75)" fill="#fff"/>
      </g>
    </g>
  </g>
</svg>
