<svg id="Group_44627" data-name="Group 44627" xmlns="http://www.w3.org/2000/svg" width="29" height="29" viewBox="0 0 29 29">
  <g id="Group_44626" data-name="Group 44626">
    <circle id="Ellipse_1280" data-name="Ellipse 1280" cx="14.5" cy="14.5" r="14.5" fill="#406ca7"/>
  </g>
  <g id="instagram_2_" data-name="instagram (2)" transform="translate(6 6)">
    <path id="Path_170" data-name="Path 170" d="M16.793,4.949A6.183,6.183,0,0,0,16.4,2.905a4.128,4.128,0,0,0-.971-1.492A4.129,4.129,0,0,0,13.938.442,6.182,6.182,0,0,0,11.894.051C11,.01,10.709,0,8.422,0S5.847.01,4.949.05A6.184,6.184,0,0,0,2.905.442a4.128,4.128,0,0,0-1.492.971A4.128,4.128,0,0,0,.442,2.9,6.182,6.182,0,0,0,.051,4.949C.01,5.847,0,6.134,0,8.421S.01,11,.051,11.894a6.181,6.181,0,0,0,.391,2.044,4.127,4.127,0,0,0,.971,1.492,4.126,4.126,0,0,0,1.492.971,6.18,6.18,0,0,0,2.044.392c.9.041,1.185.051,3.472.051s2.574-.01,3.472-.051a6.18,6.18,0,0,0,2.044-.392A4.306,4.306,0,0,0,16.4,13.938a6.181,6.181,0,0,0,.392-2.044c.041-.9.051-1.185.051-3.472s-.01-2.574-.051-3.472Zm-1.516,6.875a4.66,4.66,0,0,1-.29,1.564,2.789,2.789,0,0,1-1.6,1.6,4.66,4.66,0,0,1-1.564.29c-.888.041-1.154.049-3.4.049s-2.515-.008-3.4-.049a4.661,4.661,0,0,1-1.564-.29,2.61,2.61,0,0,1-.968-.63,2.609,2.609,0,0,1-.63-.968,4.66,4.66,0,0,1-.29-1.564c-.04-.888-.049-1.154-.049-3.4s.009-2.515.049-3.4a4.663,4.663,0,0,1,.29-1.564,2.611,2.611,0,0,1,.63-.968,2.607,2.607,0,0,1,.968-.63,4.659,4.659,0,0,1,1.564-.29c.888-.04,1.154-.049,3.4-.049h0c2.249,0,2.515.009,3.4.049a4.66,4.66,0,0,1,1.564.29,2.611,2.611,0,0,1,.968.63,2.607,2.607,0,0,1,.63.968,4.655,4.655,0,0,1,.29,1.564c.04.888.049,1.154.049,3.4s-.008,2.515-.049,3.4Zm0,0" transform="translate(0 0)" fill="#fff"/>
    <path id="Path_171" data-name="Path 171" d="M128.864,124.539a4.325,4.325,0,1,0,4.325,4.325A4.325,4.325,0,0,0,128.864,124.539Zm0,7.132a2.807,2.807,0,1,1,2.807-2.807A2.807,2.807,0,0,1,128.864,131.671Zm0,0" transform="translate(-120.442 -120.442)" fill="#fff"/>
    <path id="Path_172" data-name="Path 172" d="M363.951,89.636a1.011,1.011,0,1,1-1.011-1.011A1.011,1.011,0,0,1,363.951,89.636Zm0,0" transform="translate(-350.023 -85.71)" fill="#fff"/>
  </g>
</svg>
