<svg id="Notification" xmlns="http://www.w3.org/2000/svg" width="15" height="18" viewBox="0 0 15 18">
  <path id="Stroke_1" data-name="Stroke 1" d="M6.75,13.756a14.718,14.718,0,0,1-5.3-.646A3.25,3.25,0,0,1-.748,10.15q0-.027,0-.054A4.642,4.642,0,0,1,.018,7.453a4.369,4.369,0,0,0,.707-2.6A5.5,5.5,0,0,1,2.386,1.042,6.091,6.091,0,0,1,6.75-.75a6.091,6.091,0,0,1,4.364,1.792,5.5,5.5,0,0,1,1.662,3.806,4.369,4.369,0,0,0,.707,2.6A4.642,4.642,0,0,1,14.25,10.1q0,.027,0,.054a3.25,3.25,0,0,1-2.192,2.957A14.67,14.67,0,0,1,6.75,13.756ZM.466,10.068a2.022,2.022,0,0,0,1.422,1.874,13.992,13.992,0,0,0,4.862.56,13.941,13.941,0,0,0,4.862-.563,2.022,2.022,0,0,0,1.422-1.871A3.374,3.374,0,0,0,12.44,8.1a5.575,5.575,0,0,1-.881-3.25,4.287,4.287,0,0,0-1.3-2.909A4.9,4.9,0,0,0,6.75.5,4.9,4.9,0,0,0,3.237,1.939a4.287,4.287,0,0,0-1.3,2.909A5.575,5.575,0,0,1,1.06,8.1,3.374,3.374,0,0,0,.466,10.068Z" transform="translate(0.75 0.75)" fill="#406ca7"/>
  <path id="Stroke_3" data-name="Stroke 3" d="M1.928,1.474A3.371,3.371,0,0,1-.588.3.631.631,0,0,1-.541-.588a.631.631,0,0,1,.891.048A2.126,2.126,0,0,0,1.928.212,2.134,2.134,0,0,0,3.51-.541.631.631,0,0,1,4.4-.588.631.631,0,0,1,4.448.3,3.379,3.379,0,0,1,1.928,1.474Z" transform="translate(5.534 16.526)" fill="#406ca7"/>
</svg>
