<svg id="Group_44647" data-name="Group 44647" xmlns="http://www.w3.org/2000/svg" width="29" height="29" viewBox="0 0 29 29">
  <path id="Path_99789" data-name="Path 99789" d="M14.5,0A14.5,14.5,0,1,1,0,14.5,14.5,14.5,0,0,1,14.5,0Z" fill="#406ca7"/>
  <g id="svgexport-6_-_2022-07-27T030204.175" data-name="svgexport-6 - 2022-07-27T030204.175" transform="translate(8 7)">
    <g id="Group_44645" data-name="Group 44645">
      <path id="Path_99741" data-name="Path 99741" d="M44.641,4.159a3.793,3.793,0,0,1-2.292-.766,3.794,3.794,0,0,1-1.515-3H38.376V7.106l0,3.679a2.228,2.228,0,1,1-1.528-2.111v-2.5a4.837,4.837,0,0,0-.709-.052A4.713,4.713,0,0,0,32.595,7.71a4.619,4.619,0,0,0,.208,6.369,4.8,4.8,0,0,0,.444.388,4.713,4.713,0,0,0,2.889.977,4.837,4.837,0,0,0,.709-.052,4.7,4.7,0,0,0,2.624-1.312A4.6,4.6,0,0,0,40.85,10.8L40.837,5.31a6.228,6.228,0,0,0,3.811,1.3V4.159h-.007Z" transform="translate(-31.423 -0.39)" fill="#fff"/>
    </g>
  </g>
</svg>
