<svg xmlns="http://www.w3.org/2000/svg" width="29" height="29" viewBox="0 0 29 29">
  <g id="Group_44623" data-name="Group 44623" transform="translate(0.25)">
    <circle id="Ellipse_1280" data-name="Ellipse 1280" cx="14.5" cy="14.5" r="14.5" transform="translate(-0.25)" fill="#406ca7"/>
    <g id="svgexport-6_100_" data-name="svgexport-6 (100)" transform="translate(6 8)">
      <path id="Path_99730" data-name="Path 99730" d="M16.121,49.551a6.891,6.891,0,0,1-1.9.522,3.286,3.286,0,0,0,1.454-1.827,6.6,6.6,0,0,1-2.1.8,3.3,3.3,0,0,0-5.717,2.26,3.4,3.4,0,0,0,.077.754A9.355,9.355,0,0,1,1.122,48.6,3.306,3.306,0,0,0,2.138,53.02a3.264,3.264,0,0,1-1.493-.407v.036A3.32,3.32,0,0,0,3.293,55.9a3.3,3.3,0,0,1-.867.109,2.922,2.922,0,0,1-.626-.056,3.336,3.336,0,0,0,3.088,2.3,6.641,6.641,0,0,1-4.1,1.41A6.19,6.19,0,0,1,0,59.615,9.3,9.3,0,0,0,5.07,61.1a9.342,9.342,0,0,0,9.407-9.4c0-.146-.005-.287-.012-.427A6.593,6.593,0,0,0,16.121,49.551Z" transform="translate(0 -48)" fill="#fff"/>
    </g>
  </g>
</svg>
