<svg xmlns="http://www.w3.org/2000/svg" width="29" height="29" viewBox="0 0 29 29">
  <g id="Group_44629" data-name="Group 44629" transform="translate(-0.5)">
    <g id="Group_44624" data-name="Group 44624">
      <circle id="Ellipse_1280" data-name="Ellipse 1280" cx="14.5" cy="14.5" r="14.5" transform="translate(0.5)" fill="#406ca7"/>
    </g>
    <g id="icon" transform="translate(6 6)">
      <path id="Path_4350" data-name="Path 4350" d="M47.859,35.521a8.424,8.424,0,0,0-13.5,9.746l-.894,4.339a.321.321,0,0,0,.051.252.326.326,0,0,0,.346.134l4.253-1.008a8.423,8.423,0,0,0,9.739-13.463ZM46.532,46.105a6.6,6.6,0,0,1-7.6,1.235l-.593-.293-2.607.618.008-.032.54-2.624-.29-.573a6.595,6.595,0,0,1,10.541-7.655.351.351,0,0,0,.034.034A6.6,6.6,0,0,1,46.532,46.105Z" transform="translate(-33.447 -33.024)" fill="#fff"/>
      <path id="Path_4351" data-name="Path 4351" d="M69.189,68.056a2.739,2.739,0,0,1-1.459,1.272c-1.111.269-2.817.009-4.94-1.97l-.026-.023c-1.866-1.731-2.351-3.171-2.234-4.313A2.73,2.73,0,0,1,61.59,61.4a.607.607,0,0,1,.949.218l.687,1.544a.6.6,0,0,1-.076.617l-.347.451a.6.6,0,0,0-.054.667,6.49,6.49,0,0,0,1.178,1.308,6.874,6.874,0,0,0,1.632,1.169.59.59,0,0,0,.647-.136l.4-.406a.617.617,0,0,1,.6-.154l1.632.463a.617.617,0,0,1,.346.912Z" transform="translate(-56.335 -56.9)" fill="#fff"/>
    </g>
  </g>
</svg>
